<svg width="25" height="15" viewBox="0 0 25 15" fill="none" xmlns="http://www.w3.org/2000/svg">
<path fill-rule="evenodd" clip-rule="evenodd" d="M22.6898 0.653023H20.1075C19.4509 0.653023 19.1482 0.991608 18.984 1.3649C18.984 1.3649 17.6709 4.48535 15.8105 6.51218C15.2086 7.09891 14.9351 7.28573 14.6066 7.28573C14.4426 7.28573 14.205 7.09891 14.205 6.56559V1.57833C14.205 0.938204 14.0143 0.653023 13.4672 0.653023H9.40928C8.99906 0.653023 8.75226 0.950071 8.75226 1.23166C8.75226 1.83852 9.68227 1.97841 9.77819 3.68519V7.39218C9.77819 8.20511 9.62767 8.35238 9.29935 8.35238C8.42394 8.35238 6.29444 5.21826 5.0315 1.63174C4.78396 0.934608 4.53569 0.653023 3.87572 0.653023H1.29339C0.555582 0.653023 0.40802 0.991608 0.40802 1.3649C0.40802 2.03164 1.28343 5.33873 4.48423 9.71265C6.61815 12.6995 9.62472 14.3187 12.3605 14.3187C14.002 14.3187 14.205 13.9591 14.205 13.3396V11.0821C14.205 10.3628 14.3605 10.2194 14.8803 10.2194C15.2632 10.2194 15.9199 10.406 17.4519 11.8461C19.2028 13.5529 19.4916 14.3187 20.4764 14.3187H23.0587C23.7965 14.3187 24.1654 13.9591 23.9526 13.2494C23.7198 12.542 22.8837 11.5158 21.7746 10.2992C21.1727 9.60584 20.2698 8.85926 19.9963 8.4858C19.6132 8.00588 19.7227 7.79226 19.9963 7.36557C19.9963 7.36557 23.1425 3.04524 23.4708 1.57833C23.635 1.04501 23.4708 0.653023 22.6898 0.653023Z" fill="#004570"/>
</svg>
